<svg width="178" height="45" viewBox="0 0 178 45" fill="none" xmlns="http://www.w3.org/2000/svg">
<path d="M78.04 21.3C78.38 21.3 78.66 21.41 78.88 21.63C79.1 21.83 79.21 22.1 79.21 22.44V29.88C79.21 30.22 79.1 30.5 78.88 30.72C77.02 32.44 74.57 33.3 71.53 33.3C69.41 33.3 67.46 32.76 65.68 31.68C63.9 30.6 62.48 29.14 61.42 27.3C60.38 25.46 59.86 23.45 59.86 21.27C59.86 19.11 60.38 17.11 61.42 15.27C62.46 13.43 63.87 11.97 65.65 10.89C67.43 9.81 69.39 9.27 71.53 9.27C72.97 9.27 74.28 9.48 75.46 9.9C76.64 10.32 77.78 10.99 78.88 11.91C79.1 12.07 79.21 12.3 79.21 12.6C79.21 12.76 79.17 12.91 79.09 13.05C79.01 13.17 78.9 13.26 78.76 13.32C78.72 13.46 78.63 13.58 78.49 13.68C78.35 13.76 78.2 13.8 78.04 13.8C77.76 13.8 77.51 13.7 77.29 13.5C76.51 12.8 75.66 12.29 74.74 11.97C73.82 11.65 72.75 11.49 71.53 11.49C69.85 11.49 68.29 11.94 66.85 12.84C65.41 13.72 64.26 14.91 63.4 16.41C62.56 17.91 62.14 19.53 62.14 21.27C62.14 23.05 62.56 24.69 63.4 26.19C64.24 27.69 65.38 28.88 66.82 29.76C68.26 30.64 69.83 31.08 71.53 31.08C73.47 31.08 75.27 30.51 76.93 29.37V23.37H72.25C71.91 23.37 71.63 23.27 71.41 23.07C71.19 22.87 71.08 22.62 71.08 22.32C71.08 22.02 71.19 21.78 71.41 21.6C71.63 21.4 71.91 21.3 72.25 21.3H78.04ZM93.1145 16.41C94.5345 16.41 95.8045 16.71 96.9245 17.31C98.0645 17.91 98.9545 18.79 99.5945 19.95C100.235 21.09 100.555 22.46 100.555 24.06V31.86C100.555 32.18 100.445 32.45 100.225 32.67C100.005 32.89 99.7345 33 99.4145 33C99.0745 33 98.7945 32.89 98.5745 32.67C98.3545 32.45 98.2445 32.18 98.2445 31.86V24.06C98.2445 22.28 97.7445 20.93 96.7445 20.01C95.7645 19.07 94.4745 18.6 92.8745 18.6C91.8945 18.6 91.0045 18.79 90.2045 19.17C89.4245 19.55 88.8045 20.08 88.3445 20.76C87.8845 21.42 87.6545 22.16 87.6545 22.98V31.86C87.6545 32.2 87.5445 32.48 87.3245 32.7C87.1245 32.9 86.8545 33 86.5145 33C86.1745 33 85.8945 32.9 85.6745 32.7C85.4545 32.48 85.3445 32.2 85.3445 31.86V17.76C85.3445 17.42 85.4545 17.14 85.6745 16.92C85.8945 16.7 86.1745 16.59 86.5145 16.59C86.8545 16.59 87.1245 16.7 87.3245 16.92C87.5445 17.14 87.6545 17.42 87.6545 17.76V18.78C88.3145 18.04 89.1145 17.46 90.0545 17.04C90.9945 16.62 92.0145 16.41 93.1145 16.41ZM120.887 16.59C121.227 16.59 121.507 16.7 121.727 16.92C121.947 17.12 122.057 17.39 122.057 17.73V31.83C122.057 32.17 121.947 32.45 121.727 32.67C121.507 32.89 121.227 33 120.887 33C120.547 33 120.267 32.89 120.047 32.67C119.847 32.45 119.747 32.17 119.747 31.83V30.81C119.087 31.55 118.287 32.13 117.347 32.55C116.407 32.97 115.387 33.18 114.287 33.18C112.867 33.18 111.587 32.88 110.447 32.28C109.327 31.68 108.447 30.81 107.807 29.67C107.167 28.51 106.847 27.13 106.847 25.53V17.73C106.847 17.41 106.957 17.14 107.177 16.92C107.397 16.7 107.667 16.59 107.987 16.59C108.327 16.59 108.607 16.7 108.827 16.92C109.047 17.14 109.157 17.41 109.157 17.73V25.53C109.157 27.31 109.647 28.67 110.627 29.61C111.627 30.53 112.927 30.99 114.527 30.99C115.507 30.99 116.387 30.8 117.167 30.42C117.967 30.04 118.597 29.52 119.057 28.86C119.517 28.18 119.747 27.43 119.747 26.61V17.73C119.747 17.39 119.847 17.12 120.047 16.92C120.267 16.7 120.547 16.59 120.887 16.59ZM146.23 16.41C147.41 16.41 148.45 16.69 149.35 17.25C150.27 17.81 150.98 18.61 151.48 19.65C152 20.67 152.26 21.86 152.26 23.22V31.86C152.26 32.2 152.15 32.48 151.93 32.7C151.73 32.9 151.46 33 151.12 33C150.78 33 150.5 32.9 150.28 32.7C150.06 32.48 149.95 32.2 149.95 31.86V23.22C149.95 21.8 149.58 20.68 148.84 19.86C148.12 19.02 147.17 18.6 145.99 18.6C144.73 18.6 143.71 19.02 142.93 19.86C142.15 20.7 141.77 21.8 141.79 23.16V23.22V31.86C141.79 32.2 141.68 32.48 141.46 32.7C141.26 32.9 140.99 33 140.65 33C140.31 33 140.03 32.9 139.81 32.7C139.59 32.48 139.48 32.2 139.48 31.86V23.22C139.48 21.8 139.11 20.68 138.37 19.86C137.65 19.02 136.7 18.6 135.52 18.6C134.28 18.6 133.26 19.01 132.46 19.83C131.66 20.65 131.26 21.7 131.26 22.98V31.86C131.26 32.2 131.15 32.48 130.93 32.7C130.73 32.9 130.46 33 130.12 33C129.78 33 129.5 32.9 129.28 32.7C129.06 32.48 128.95 32.2 128.95 31.86V17.76C128.95 17.42 129.06 17.14 129.28 16.92C129.5 16.7 129.78 16.59 130.12 16.59C130.46 16.59 130.73 16.7 130.93 16.92C131.15 17.14 131.26 17.42 131.26 17.76V18.42C131.82 17.78 132.48 17.29 133.24 16.95C134.02 16.59 134.86 16.41 135.76 16.41C136.86 16.41 137.85 16.66 138.73 17.16C139.61 17.66 140.31 18.36 140.83 19.26C141.41 18.36 142.16 17.66 143.08 17.16C144.02 16.66 145.07 16.41 146.23 16.41ZM166.338 16.44C167.898 16.44 169.308 16.81 170.568 17.55C171.848 18.27 172.848 19.27 173.568 20.55C174.308 21.83 174.678 23.25 174.678 24.81V31.86C174.678 32.18 174.568 32.45 174.348 32.67C174.128 32.89 173.848 33 173.508 33C173.168 33 172.888 32.9 172.668 32.7C172.448 32.48 172.338 32.2 172.338 31.86V30.06C171.638 31.02 170.748 31.78 169.668 32.34C168.588 32.88 167.398 33.15 166.098 33.15C164.578 33.15 163.198 32.79 161.958 32.07C160.738 31.33 159.768 30.33 159.048 29.07C158.348 27.79 157.998 26.37 157.998 24.81C157.998 23.25 158.358 21.83 159.078 20.55C159.818 19.27 160.818 18.27 162.078 17.55C163.358 16.81 164.778 16.44 166.338 16.44ZM166.338 31.05C167.478 31.05 168.508 30.78 169.428 30.24C170.348 29.7 171.068 28.96 171.588 28.02C172.128 27.06 172.398 25.99 172.398 24.81C172.398 23.63 172.128 22.57 171.588 21.63C171.068 20.67 170.348 19.92 169.428 19.38C168.508 18.82 167.478 18.54 166.338 18.54C165.198 18.54 164.158 18.82 163.218 19.38C162.298 19.92 161.568 20.67 161.028 21.63C160.508 22.57 160.248 23.63 160.248 24.81C160.248 25.99 160.508 27.06 161.028 28.02C161.568 28.96 162.298 29.7 163.218 30.24C164.158 30.78 165.198 31.05 166.338 31.05Z" fill="white"/>
<g filter="url(#filter0_d)">
<path d="M7.94029 4.36213V8.24407V25.5741C7.94029 27.9033 9.25373 28.347 9.74626 28.6242L20.0895 32.9221C24.0298 34.4471 24.5224 33.6153 24.5224 32.9221L24.0298 9.35319C23.8985 7.46768 26.2736 5.88718 27.4776 5.33262L39.791 1.1734C45.4388 -1.26667 47.6168 0.988546 48 2.42116V27.931C47.3433 31.2584 46.3582 31.2584 45.209 31.9516L40.4478 34.1699L36.6716 35.5563L35.0298 35.9722C33.0597 36.1108 32.5672 34.0312 34.5373 32.9221L38.6418 31.2584L42.4179 29.5947C43.8955 28.9015 44.0597 27.3765 44.0597 26.8219L44.3881 4.08485C44.3881 2.7186 42.3683 3.50658 41.6289 3.79515L41.597 3.80757L35.3582 6.16446L29.1194 8.24407C27.4776 8.79863 27.4734 9.49183 27.4776 10.0464C27.5323 17.2557 27.9373 32.1734 27.806 34.7244C27.6746 37.2754 24.0298 37.1737 22.2239 36.804L15 34.3085L7.1194 31.1198C3.99999 29.872 4.16417 28.7629 4.16417 27.931L4 2.42116C4.32835 -0.213007 8.26865 -0.213008 9.74626 0.202914L18.2836 3.39165C21.403 5.33262 17.791 6.9963 16.4776 6.3031L10.5672 4.08485C8.59701 3.25301 7.94029 3.53029 7.94029 4.36213Z" fill="#114B5F"/>
</g>
<defs>
<filter id="filter0_d" x="0" y="0" width="52" height="45" filterUnits="userSpaceOnUse" color-interpolation-filters="sRGB">
<feFlood flood-opacity="0" result="BackgroundImageFix"/>
<feColorMatrix in="SourceAlpha" type="matrix" values="0 0 0 0 0 0 0 0 0 0 0 0 0 0 0 0 0 0 127 0"/>
<feOffset dy="4"/>
<feGaussianBlur stdDeviation="2"/>
<feColorMatrix type="matrix" values="0 0 0 0 0 0 0 0 0 0 0 0 0 0 0 0 0 0 0.25 0"/>
<feBlend mode="normal" in2="BackgroundImageFix" result="effect1_dropShadow"/>
<feBlend mode="normal" in="SourceGraphic" in2="effect1_dropShadow" result="shape"/>
</filter>
</defs>
</svg>
