<svg width="143" height="43" viewBox="0 0 143 43" fill="none" xmlns="http://www.w3.org/2000/svg">
<path d="M21.8672 29.6426C21 30.8848 19.7871 31.8164 18.2285 32.4375C16.6816 33.0469 14.877 33.3516 12.8145 33.3516C10.7285 33.3516 8.87695 32.8652 7.25977 31.8926C5.64258 30.9082 4.38867 29.5137 3.49805 27.709C2.61914 25.9043 2.16797 23.8125 2.14453 21.4336V19.2012C2.14453 15.3457 3.04102 12.3574 4.83398 10.2363C6.63867 8.11523 9.16992 7.05469 12.4277 7.05469C15.0996 7.05469 17.25 7.74023 18.8789 9.11133C20.5078 10.4707 21.5039 12.4043 21.8672 14.9121H18.4922C17.8594 11.5254 15.8438 9.83203 12.4453 9.83203C10.1836 9.83203 8.4668 10.6289 7.29492 12.2227C6.13477 13.8047 5.54883 16.1016 5.53711 19.1133V21.2051C5.53711 24.0762 6.19336 26.3613 7.50586 28.0605C8.81836 29.748 10.5938 30.5918 12.832 30.5918C14.0977 30.5918 15.2051 30.4512 16.1543 30.1699C17.1035 29.8887 17.8887 29.4141 18.5098 28.7461V22.998H12.5859V20.2559H21.8672V29.6426Z" fill="#114B5F"/>
<path d="M42.9117 18.4102C43.5328 16.9336 44.4469 15.7676 45.6539 14.9121C46.8609 14.0566 48.1969 13.6289 49.6617 13.6289C51.7008 13.6289 53.2125 14.209 54.1969 15.3691C55.193 16.5176 55.6969 18.2578 55.7086 20.5898V33H54.7594V20.5547C54.7477 18.5156 54.3316 17.0098 53.5113 16.0371C52.691 15.0527 51.3902 14.5605 49.609 14.5605C47.9684 14.5605 46.5445 15.1465 45.3375 16.3184C44.1422 17.4785 43.3336 18.9785 42.9117 20.8184V33H41.9625V13.9805H42.9117V18.4102ZM76.2293 33V29.9238C75.6668 30.9785 74.8465 31.8164 73.7684 32.4375C72.6902 33.0469 71.325 33.3516 69.6727 33.3516C67.5984 33.3516 66.0398 32.748 64.9969 31.541C63.9656 30.3223 63.4383 28.5527 63.4148 26.2324V13.9805H64.3641V26.2676C64.3875 28.2832 64.8445 29.8125 65.7352 30.8555C66.6258 31.8867 67.9266 32.4023 69.6375 32.4023C71.4539 32.4023 72.9305 31.9746 74.0672 31.1191C75.2039 30.2637 75.9246 29.0098 76.2293 27.3574V13.9805H77.1961V33H76.2293ZM98.6133 33H97.6641V20.2207C97.6523 18.3105 97.2305 16.8926 96.3984 15.9668C95.5781 15.0293 94.2656 14.5605 92.4609 14.5605C90.375 14.5605 88.6699 15.4805 87.3457 17.3203C86.5605 18.4219 86.0391 19.6406 85.7812 20.9766V33H84.8145V13.9805H85.7812V18.4805C86.4258 16.9336 87.3457 15.7383 88.541 14.8945C89.7363 14.0508 91.0605 13.6289 92.5137 13.6289C94.1074 13.6289 95.4082 13.9805 96.416 14.6836C97.4355 15.3867 98.1035 16.5352 98.4199 18.1289C98.9824 16.7578 99.8965 15.668 101.162 14.8594C102.428 14.0391 103.846 13.6289 105.416 13.6289C107.467 13.6289 108.99 14.209 109.986 15.3691C110.994 16.5293 111.504 18.2695 111.516 20.5898V33H110.566V20.6602C110.566 18.5742 110.145 17.0332 109.301 16.0371C108.469 15.0293 107.156 14.5371 105.363 14.5605C103.055 14.5957 101.227 15.5156 99.8789 17.3203C99.1055 18.3633 98.6836 19.3711 98.6133 20.3438V33ZM131.368 33C131.134 32.1914 131.017 31.0312 131.017 29.5195C130.267 30.7383 129.241 31.6816 127.941 32.3496C126.64 33.0176 125.169 33.3516 123.529 33.3516C121.771 33.3516 120.353 32.877 119.275 31.9277C118.208 30.9668 117.675 29.7188 117.675 28.1836C117.675 26.4375 118.46 25.043 120.03 24C121.613 22.9453 123.71 22.4062 126.323 22.3828H131.017V19.6055C131.017 18.0117 130.513 16.7754 129.505 15.8965C128.509 15.0176 127.079 14.5781 125.216 14.5781C123.482 14.5781 122.034 15.0234 120.874 15.9141C119.714 16.8047 119.134 17.9062 119.134 19.2188L118.185 19.1836C118.185 17.6367 118.864 16.3242 120.224 15.2461C121.583 14.168 123.247 13.6289 125.216 13.6289C127.267 13.6289 128.896 14.1445 130.103 15.1758C131.31 16.1953 131.931 17.6367 131.966 19.5V28.5879C131.966 30.6738 132.13 32.0918 132.458 32.8418V33H131.368ZM123.529 32.4199C125.31 32.4199 126.839 32.0215 128.116 31.2246C129.405 30.4277 130.372 29.3086 131.017 27.8672V23.3496H126.622C123.904 23.3496 121.823 23.8887 120.382 24.9668C119.21 25.8457 118.624 26.9414 118.624 28.2539C118.624 29.4141 119.087 30.3984 120.013 31.207C120.939 32.0156 122.111 32.4199 123.529 32.4199Z" fill="white"/>
<path d="M37.5 21.5C37.5 24.5376 35.0376 27 32 27C28.9624 27 26.5 24.5376 26.5 21.5C26.5 18.4624 28.9624 16 32 16C35.0376 16 37.5 18.4624 37.5 21.5Z" fill="#114B5F"/>
</svg>
