<svg width="213" height="72" viewBox="0 0 213 72" fill="none" xmlns="http://www.w3.org/2000/svg">
<g filter="url(#filter0_d)">
<path d="M10.4478 7.54531L10.4478 14.26L10.4478 44.2364C10.4478 48.2652 12.597 49.0326 13.403 49.5122L30.3284 56.9463C36.7761 59.5842 37.5821 58.1454 37.5821 56.9463L36.7761 16.1785C36.5612 12.9171 40.4478 10.1832 42.4179 9.22398L62.5672 2.02967C71.809 -2.191 75.373 1.70992 76 4.18796L76 48.3131C74.9254 54.0686 73.3134 54.0686 71.4328 55.2677L63.6418 59.1046L57.4627 61.5027L54.7761 62.2222C51.5522 62.462 50.7463 58.8648 53.9701 56.9463L60.6866 54.0686L66.8657 51.1909C69.2836 49.9918 69.5522 47.3539 69.5522 46.3947L70.0896 7.06569C70.0896 4.70245 66.7845 6.06544 65.5745 6.56458L65.5224 6.58607L55.3134 10.6628L45.1045 14.26C42.4179 15.2193 42.411 16.4183 42.4179 17.3776C42.5075 29.8477 43.1701 55.6514 42.9552 60.0639C42.7403 64.4764 36.7761 64.3004 33.8209 63.661L22 59.3444L9.10447 53.8288C3.99999 51.6705 4.26865 49.752 4.26865 48.3131L4 4.18796C4.5373 -0.368444 10.9851 -0.368446 13.403 0.350986L27.3731 5.86663C32.4776 9.22398 26.5672 12.1017 24.4179 10.9027L14.7463 7.06569C11.5224 5.62682 10.4478 6.10644 10.4478 7.54531Z" fill="#114B5F"/>
</g>
<path d="M108.245 29.74C108.631 29.74 108.948 29.8647 109.197 30.114C109.447 30.3407 109.571 30.6467 109.571 31.032V39.464C109.571 39.8493 109.447 40.1667 109.197 40.416C107.089 42.3653 104.313 43.34 100.867 43.34C98.4645 43.34 96.2545 42.728 94.2372 41.504C92.2199 40.28 90.6105 38.6253 89.4092 36.54C88.2305 34.4547 87.6412 32.1767 87.6412 29.706C87.6412 27.258 88.2305 24.9913 89.4092 22.906C90.5879 20.8207 92.1859 19.166 94.2032 17.942C96.2205 16.718 98.4419 16.106 100.867 16.106C102.499 16.106 103.984 16.344 105.321 16.82C106.659 17.296 107.951 18.0553 109.197 19.098C109.447 19.2793 109.571 19.54 109.571 19.88C109.571 20.0613 109.526 20.2313 109.435 20.39C109.345 20.526 109.22 20.628 109.061 20.696C109.016 20.8547 108.914 20.9907 108.755 21.104C108.597 21.1947 108.427 21.24 108.245 21.24C107.928 21.24 107.645 21.1267 107.395 20.9C106.511 20.1067 105.548 19.5287 104.505 19.166C103.463 18.8033 102.25 18.622 100.867 18.622C98.9632 18.622 97.1952 19.132 95.5632 20.152C93.9312 21.1493 92.6279 22.498 91.6532 24.198C90.7012 25.898 90.2252 27.734 90.2252 29.706C90.2252 31.7233 90.7012 33.582 91.6532 35.282C92.6052 36.982 93.8972 38.3307 95.5292 39.328C97.1612 40.3253 98.9405 40.824 100.867 40.824C103.066 40.824 105.106 40.178 106.987 38.886V32.086H101.683C101.298 32.086 100.981 31.9727 100.731 31.746C100.482 31.5193 100.357 31.236 100.357 30.896C100.357 30.556 100.482 30.284 100.731 30.08C100.981 29.8533 101.298 29.74 101.683 29.74H108.245ZM123.63 24.198C125.239 24.198 126.678 24.538 127.948 25.218C129.24 25.898 130.248 26.8953 130.974 28.21C131.699 29.502 132.062 31.0547 132.062 32.868V41.708C132.062 42.0707 131.937 42.3767 131.688 42.626C131.438 42.8753 131.132 43 130.77 43C130.384 43 130.067 42.8753 129.818 42.626C129.568 42.3767 129.444 42.0707 129.444 41.708V32.868C129.444 30.8507 128.877 29.3207 127.744 28.278C126.633 27.2127 125.171 26.68 123.358 26.68C122.247 26.68 121.238 26.8953 120.332 27.326C119.448 27.7567 118.745 28.3573 118.224 29.128C117.702 29.876 117.442 30.7147 117.442 31.644V41.708C117.442 42.0933 117.317 42.4107 117.068 42.66C116.841 42.8867 116.535 43 116.15 43C115.764 43 115.447 42.8867 115.198 42.66C114.948 42.4107 114.824 42.0933 114.824 41.708V25.728C114.824 25.3427 114.948 25.0253 115.198 24.776C115.447 24.5267 115.764 24.402 116.15 24.402C116.535 24.402 116.841 24.5267 117.068 24.776C117.317 25.0253 117.442 25.3427 117.442 25.728V26.884C118.19 26.0453 119.096 25.388 120.162 24.912C121.227 24.436 122.383 24.198 123.63 24.198ZM153.405 24.402C153.791 24.402 154.108 24.5267 154.357 24.776C154.607 25.0027 154.731 25.3087 154.731 25.694V41.674C154.731 42.0593 154.607 42.3767 154.357 42.626C154.108 42.8753 153.791 43 153.405 43C153.02 43 152.703 42.8753 152.453 42.626C152.227 42.3767 152.113 42.0593 152.113 41.674V40.518C151.365 41.3567 150.459 42.014 149.393 42.49C148.328 42.966 147.172 43.204 145.925 43.204C144.316 43.204 142.865 42.864 141.573 42.184C140.304 41.504 139.307 40.518 138.581 39.226C137.856 37.9113 137.493 36.3473 137.493 34.534V25.694C137.493 25.3313 137.618 25.0253 137.867 24.776C138.117 24.5267 138.423 24.402 138.785 24.402C139.171 24.402 139.488 24.5267 139.737 24.776C139.987 25.0253 140.111 25.3313 140.111 25.694V34.534C140.111 36.5513 140.667 38.0927 141.777 39.158C142.911 40.2007 144.384 40.722 146.197 40.722C147.308 40.722 148.305 40.5067 149.189 40.076C150.096 39.6453 150.81 39.056 151.331 38.308C151.853 37.5373 152.113 36.6873 152.113 35.758V25.694C152.113 25.3087 152.227 25.0027 152.453 24.776C152.703 24.5267 153.02 24.402 153.405 24.402ZM180.427 24.198C181.765 24.198 182.943 24.5153 183.963 25.15C185.006 25.7847 185.811 26.6913 186.377 27.87C186.967 29.026 187.261 30.3747 187.261 31.916V41.708C187.261 42.0933 187.137 42.4107 186.887 42.66C186.661 42.8867 186.355 43 185.969 43C185.584 43 185.267 42.8867 185.017 42.66C184.768 42.4107 184.643 42.0933 184.643 41.708V31.916C184.643 30.3067 184.224 29.0373 183.385 28.108C182.569 27.156 181.493 26.68 180.155 26.68C178.727 26.68 177.571 27.156 176.687 28.108C175.803 29.06 175.373 30.3067 175.395 31.848V31.916V41.708C175.395 42.0933 175.271 42.4107 175.021 42.66C174.795 42.8867 174.489 43 174.103 43C173.718 43 173.401 42.8867 173.151 42.66C172.902 42.4107 172.777 42.0933 172.777 41.708V31.916C172.777 30.3067 172.358 29.0373 171.519 28.108C170.703 27.156 169.627 26.68 168.289 26.68C166.884 26.68 165.728 27.1447 164.821 28.074C163.915 29.0033 163.461 30.1933 163.461 31.644V41.708C163.461 42.0933 163.337 42.4107 163.087 42.66C162.861 42.8867 162.555 43 162.169 43C161.784 43 161.467 42.8867 161.217 42.66C160.968 42.4107 160.843 42.0933 160.843 41.708V25.728C160.843 25.3427 160.968 25.0253 161.217 24.776C161.467 24.5267 161.784 24.402 162.169 24.402C162.555 24.402 162.861 24.5267 163.087 24.776C163.337 25.0253 163.461 25.3427 163.461 25.728V26.476C164.096 25.7507 164.844 25.1953 165.705 24.81C166.589 24.402 167.541 24.198 168.561 24.198C169.808 24.198 170.93 24.4813 171.927 25.048C172.925 25.6147 173.718 26.408 174.307 27.428C174.965 26.408 175.815 25.6147 176.857 25.048C177.923 24.4813 179.113 24.198 180.427 24.198ZM201.516 24.232C203.284 24.232 204.882 24.6513 206.31 25.49C207.761 26.306 208.894 27.4393 209.71 28.89C210.549 30.3407 210.968 31.95 210.968 33.718V41.708C210.968 42.0707 210.844 42.3767 210.594 42.626C210.345 42.8753 210.028 43 209.642 43C209.257 43 208.94 42.8867 208.69 42.66C208.441 42.4107 208.316 42.0933 208.316 41.708V39.668C207.523 40.756 206.514 41.6173 205.29 42.252C204.066 42.864 202.718 43.17 201.244 43.17C199.522 43.17 197.958 42.762 196.552 41.946C195.17 41.1073 194.07 39.974 193.254 38.546C192.461 37.0953 192.064 35.486 192.064 33.718C192.064 31.95 192.472 30.3407 193.288 28.89C194.127 27.4393 195.26 26.306 196.688 25.49C198.139 24.6513 199.748 24.232 201.516 24.232ZM201.516 40.79C202.808 40.79 203.976 40.484 205.018 39.872C206.061 39.26 206.877 38.4213 207.466 37.356C208.078 36.268 208.384 35.0553 208.384 33.718C208.384 32.3807 208.078 31.1793 207.466 30.114C206.877 29.026 206.061 28.176 205.018 27.564C203.976 26.9293 202.808 26.612 201.516 26.612C200.224 26.612 199.046 26.9293 197.98 27.564C196.938 28.176 196.11 29.026 195.498 30.114C194.909 31.1793 194.614 32.3807 194.614 33.718C194.614 35.0553 194.909 36.268 195.498 37.356C196.11 38.4213 196.938 39.26 197.98 39.872C199.046 40.484 200.224 40.79 201.516 40.79Z" fill="#202020"/>
<defs>
<filter id="filter0_d" x="0" y="0" width="80" height="72" filterUnits="userSpaceOnUse" color-interpolation-filters="sRGB">
<feFlood flood-opacity="0" result="BackgroundImageFix"/>
<feColorMatrix in="SourceAlpha" type="matrix" values="0 0 0 0 0 0 0 0 0 0 0 0 0 0 0 0 0 0 127 0"/>
<feOffset dy="4"/>
<feGaussianBlur stdDeviation="2"/>
<feColorMatrix type="matrix" values="0 0 0 0 0 0 0 0 0 0 0 0 0 0 0 0 0 0 0.25 0"/>
<feBlend mode="normal" in2="BackgroundImageFix" result="effect1_dropShadow"/>
<feBlend mode="normal" in="SourceGraphic" in2="effect1_dropShadow" result="shape"/>
</filter>
</defs>
</svg>
