<svg width="31" height="31" viewBox="0 0 31 31" fill="none" xmlns="http://www.w3.org/2000/svg">
    <path fill-rule="evenodd" clip-rule="evenodd" d="M19.0919 19.092C22.6066 15.5773 22.6066 9.87878 19.0919 6.36407C15.5772 2.84935 9.87868 2.84935 6.36396 6.36407C2.84924 9.87878 2.84924 15.5773 6.36396 19.092C9.87868 22.6067 15.5772 22.6067 19.0919 19.092ZM17.2736 17.2737C19.7841 14.7632 19.7841 10.6928 17.2736 8.18233C14.7631 5.67182 10.6928 5.67182 8.18224 8.18233C5.67173 10.6928 5.67173 14.7632 8.18224 17.2737C10.6928 19.7842 14.7631 19.7842 17.2736 17.2737Z" fill="white"/>
    <path fill-rule="evenodd" clip-rule="evenodd" d="M19.9374 18.1182C19.6829 18.4577 19.4013 18.7833 19.0926 19.092C18.784 19.4006 18.4585 19.6822 18.1192 19.9366L28.6379 30.4553L30.4562 28.637L19.9374 18.1182Z" fill="white"/>
</svg>
