<svg width="108" height="98" viewBox="0 0 108 98" fill="none" xmlns="http://www.w3.org/2000/svg">
<g filter="url(#filter0_d)">
<path d="M12.9552 10.6106L12.9552 20.0531L12.9552 62.2074C12.9552 67.8729 15.9403 68.9521 17.0597 69.6265L40.5672 80.0808C49.5224 83.7903 50.6418 81.7669 50.6418 80.0808L49.5224 22.751C49.2239 18.1646 54.6219 14.3202 57.3582 12.9712L85.3433 2.85422C98.1791 -3.0811 103.129 2.40457 104 5.88932L104 67.9404C102.507 76.034 100.269 76.034 97.6567 77.7201L86.8358 83.1159L78.2537 86.4882L74.5224 87.4999C70.0448 87.8372 68.9254 82.7786 73.403 80.0808L82.7313 76.034L91.3134 71.9872C94.6716 70.301 95.0448 66.5914 95.0448 65.2425L95.791 9.93612C95.791 6.61282 91.2007 8.52952 89.5201 9.23144L89.4478 9.26165L75.2686 14.9946L61.0895 20.0531C57.3582 21.4021 57.3486 23.0882 57.3582 24.4372C57.4826 41.9733 58.403 78.2597 58.1045 84.4648C57.806 90.6699 49.5224 90.4224 45.4179 89.5233L29 83.4531L11.0895 75.6967C3.99999 72.6616 4.37312 69.9638 4.37312 67.9404L4 5.88932C4.74625 -0.518124 13.7015 -0.518127 17.0597 0.493574L36.4627 8.24995C43.5522 12.9712 35.3433 17.018 32.3582 15.3319L18.9254 9.93612C14.4477 7.91272 12.9552 8.58719 12.9552 10.6106Z" fill="#114B5F"/>
</g>
<defs>
<filter id="filter0_d" x="0" y="0" width="108" height="98" filterUnits="userSpaceOnUse" color-interpolation-filters="sRGB">
<feFlood flood-opacity="0" result="BackgroundImageFix"/>
<feColorMatrix in="SourceAlpha" type="matrix" values="0 0 0 0 0 0 0 0 0 0 0 0 0 0 0 0 0 0 127 0"/>
<feOffset dy="4"/>
<feGaussianBlur stdDeviation="2"/>
<feColorMatrix type="matrix" values="0 0 0 0 0 0 0 0 0 0 0 0 0 0 0 0 0 0 0.25 0"/>
<feBlend mode="normal" in2="BackgroundImageFix" result="effect1_dropShadow"/>
<feBlend mode="normal" in="SourceGraphic" in2="effect1_dropShadow" result="shape"/>
</filter>
</defs>
</svg>
